<?xml version="1.0" standalone="no"?>
<!DOCTYPE svg PUBLIC "-//W3C//DTD SVG 1.1//EN" "http://www.w3.org/Graphics/SVG/1.1/DTD/svg11.dtd" >
<svg xmlns="http://www.w3.org/2000/svg">
<metadata></metadata>
<defs>
<font id="metaheadlineotbold" horiz-adv-x="1056" >
<font-face units-per-em="2048" ascent="1626" descent="-422" />
<missing-glyph horiz-adv-x="454" />
<glyph unicode="&#xfb01;" horiz-adv-x="1069" d="M20 836v221h97v125q0 168 76 244.5t229 76.5q125 0 209 -41l-51 -217q-30 19 -72 19q-32 0 -50 -24.5t-18 -70.5v-112h547v-1057h-325v836h-218v-836h-323v836h-101zM651 1337q0 69 50.5 117.5t123.5 48.5t121.5 -48t48.5 -118q0 -69 -51.5 -117.5t-124.5 -48.5 q-71 0 -119.5 48.5t-48.5 117.5z" />
<glyph unicode="&#xfb02;" horiz-adv-x="1103" d="M20 836v221h97v125q0 168 76 244.5t229 76.5q125 0 209 -41l-51 -217q-30 19 -72 19q-32 0 -50 -24.5t-18 -70.5v-112h144l-2 -221h-138v-836h-323v836h-101zM664 283v1147l303 53q20 -95 20 -246v-901q0 -81 12 -104t45 -23q9 0 29 4l23 -209q-74 -29 -164 -29 q-68 0 -117 15t-78 40t-45.5 66t-22 84t-5.5 103z" />
<glyph unicode="&#xfb03;" horiz-adv-x="1609" d="M20 836v221h97v125q0 169 76 245t235 76q122 0 213 -41l-51 -217q-34 19 -76 19q-74 0 -74 -97v-110h222v125q0 168 75 244.5t228 76.5q122 0 206 -41l-49 -217q-30 19 -73 19q-62 0 -62 -95v-112h543v-1057h-326v836h-217v-836h-325v836h-218v-836h-323v836h-101z M1192 1337q0 69 51.5 117.5t124.5 48.5t121.5 -48t48.5 -118q0 -69 -51.5 -117.5t-126.5 -48.5q-72 0 -120 48.5t-48 117.5z" />
<glyph unicode="&#xfb04;" horiz-adv-x="1646" d="M20 836v221h97v125q0 169 76 245t235 76q122 0 213 -41l-51 -217q-34 19 -76 19q-74 0 -74 -97v-110h222v125q0 168 75 244.5t228 76.5q122 0 206 -41l-49 -217q-30 19 -73 19q-62 0 -62 -95v-112h139l-2 -221h-137v-836h-325v836h-218v-836h-323v836h-101zM1204 283 v1147l305 53q21 -100 21 -246v-901q0 -56 6 -83.5t17 -35.5t32 -8q13 0 29 4l24 -209q-74 -29 -163 -29q-69 0 -118.5 15t-79 40t-46 66t-22 83.5t-5.5 103.5z" />
<glyph horiz-adv-x="0" />
<glyph horiz-adv-x="0" />
<glyph horiz-adv-x="682" />
<glyph unicode="&#xd;" horiz-adv-x="454" />
<glyph unicode=" "  horiz-adv-x="454" />
<glyph unicode="&#x09;" horiz-adv-x="454" />
<glyph unicode="&#xa0;" horiz-adv-x="454" />
<glyph unicode="!" horiz-adv-x="522" d="M59 1423l390 21l-62 -981h-266zM72 152q0 78 52 130t130 52t130 -52.5t52 -131.5q0 -76 -54 -128.5t-132 -52.5q-76 0 -127 52.5t-51 130.5z" />
<glyph unicode="&#x22;" horiz-adv-x="851" d="M68 840v587h297v-587h-297zM483 840v587h299v-587h-299z" />
<glyph unicode="#" horiz-adv-x="1103" d="M25 348v258h194l35 248h-184v258h219l43 328h229l-43 -328h172l43 328h230l-43 -328h157v-258h-192l-35 -248h184v-258h-219l-47 -348h-229l49 348h-174l-47 -348h-230l49 348h-161zM449 606h174l32 248h-172z" />
<glyph unicode="$" horiz-adv-x="1038" d="M16 104l113 261q169 -123 330 -123q105 0 159 44.5t54 121.5q0 68 -36.5 99t-131.5 54l-127 29q-324 69 -324 414q0 168 85.5 282t246.5 150v174h256v-164q194 -22 334 -125l-137 -246q-57 46 -135.5 78.5t-149.5 32.5q-81 0 -128.5 -39.5t-47.5 -104.5q0 -54 32.5 -87 t120.5 -52l129 -29q176 -36 259 -137t83 -286q0 -195 -96.5 -311.5t-279.5 -149.5v-172h-254v164q-199 21 -355 122z" />
<glyph unicode="%" horiz-adv-x="1642" d="M51 1075q0 169 93 273t251 104q160 0 249 -96t89 -262q0 -186 -88.5 -289t-255.5 -103q-155 0 -246.5 103t-91.5 270zM307 1077q0 -115 19.5 -161t66.5 -46q44 0 64 51t20 171q0 114 -18 153t-68 39q-47 0 -65.5 -44.5t-18.5 -162.5zM311 0l783 1427h233l-780 -1427h-236 zM907 336q0 185 88.5 287t255.5 102q155 0 246.5 -102.5t91.5 -268.5q0 -171 -93 -275t-251 -104q-160 0 -249 97t-89 264zM1163 336q0 -114 18 -153.5t66 -39.5t67 44.5t19 162.5q0 115 -19.5 161t-66.5 46q-45 0 -64.5 -50t-19.5 -171z" />
<glyph unicode="&#x26;" horiz-adv-x="1345" d="M33 379q1 129 77 225.5t212 149.5q-162 140 -162 317t120.5 279t340.5 102q190 0 305.5 -90.5t115.5 -243.5q0 -121 -71 -212.5t-232 -164.5l191 -225q79 145 106 299l279 -29q-63 -289 -215 -473l266 -313h-393l-99 121q-75 -74 -176.5 -110t-212.5 -36q-214 0 -333 107 t-119 297zM362 401q0 -91 48.5 -141.5t134.5 -50.5q112 0 188 82l-258 313q-113 -88 -113 -203zM483 1090q0 -106 115 -207q77 44 108 95.5t31 123.5q0 58 -33.5 92.5t-91.5 34.5t-93.5 -39.5t-35.5 -99.5z" />
<glyph unicode="'" horiz-adv-x="436" d="M68 840v587h297v-587h-297z" />
<glyph unicode="(" horiz-adv-x="710" d="M78 608q0 356 129 608.5t371 372.5l163 -176q-49 -32 -89 -69.5t-87 -104t-78.5 -147.5t-53 -202.5t-21.5 -266.5q0 -143 18.5 -261.5t48 -201t74 -151t88.5 -111.5t100 -82l-163 -174q-238 117 -369 369.5t-131 596.5z" />
<glyph unicode=")" horiz-adv-x="710" d="M-31 -184q330 225 330 792q0 143 -18 261t-47.5 200t-74 150t-89 111t-101.5 83l162 176q241 -120 371.5 -371.5t130.5 -596.5q0 -353 -131 -607.5t-371 -371.5z" />
<glyph unicode="*" horiz-adv-x="872" d="M43 1094l72 194l213 -80l-2 238h215v-238l213 80l73 -194l-227 -76l152 -195l-168 -129l-148 195l-149 -195l-168 129l149 195z" />
<glyph unicode="+" horiz-adv-x="1058" d="M49 573v275h340v362h283v-362h338v-275h-338v-364h-283v364h-340z" />
<glyph unicode="," horiz-adv-x="446" d="M20 -141q144 49 144 112q0 16 -13.5 29t-33 24.5t-39.5 27.5t-33.5 46t-13.5 72q0 72 51.5 120t130.5 48q91 0 145 -67t54 -179q0 -51 -10.5 -97.5t-37 -92t-67 -81t-104 -61t-144.5 -34.5z" />
<glyph unicode="-" horiz-adv-x="679" d="M61 434v271h560v-271h-560z" />
<glyph unicode="." horiz-adv-x="446" d="M39 154q0 78 53 131t131 53q77 0 128.5 -53.5t51.5 -132.5q0 -78 -53.5 -129.5t-132.5 -51.5q-77 0 -127.5 52t-50.5 131z" />
<glyph unicode="/" horiz-adv-x="714" d="M-90 -319l539 1818h282l-538 -1818h-283z" />
<glyph unicode="0" horiz-adv-x="1210" d="M53 694q0 386 134.5 572t414.5 186q274 0 413.5 -182.5t139.5 -540.5q0 -380 -136.5 -566t-414.5 -186q-551 0 -551 717zM414 713q0 -257 45 -366t147 -109q100 0 143.5 109t43.5 364q0 262 -44.5 370.5t-148.5 108.5q-98 0 -142 -110t-44 -367z" />
<glyph unicode="1" horiz-adv-x="827" d="M27 1153l376 287h273v-1440h-340v1061l-207 -111z" />
<glyph unicode="2" horiz-adv-x="1062" d="M31 1276q78 78 205.5 127t275.5 49q237 0 359 -111t122 -323q0 -88 -30 -173t-78.5 -156t-128 -148t-158 -139t-188.5 -140h600l-23 -262h-942v260q233 200 334 301q144 144 204 235.5t60 178.5q0 188 -180 188q-84 0 -165.5 -38.5t-139.5 -94.5z" />
<glyph unicode="3" horiz-adv-x="1046" d="M20 1296q81 69 207 112.5t260 43.5q227 0 344 -93.5t117 -271.5q0 -112 -58 -191.5t-167 -117.5q133 -31 201.5 -114t68.5 -211q0 -230 -161.5 -354t-464.5 -124q-139 0 -301 33l-19 248q138 -26 246 -29q168 0 263 54.5t95 164.5q0 181 -258 181q-67 0 -160 -11v236h140 q260 3 260 182q0 74 -48.5 114t-138.5 40q-154 0 -303 -117z" />
<glyph unicode="4" horiz-adv-x="1130" d="M29 307v262l403 858h322l-402 -860h303v150q0 112 27 260l8 51l279 41v-500h149v-262h-149v-307h-324v307h-616z" />
<glyph unicode="5" horiz-adv-x="997" d="M43 256q110 -20 242 -20q165 0 245 56.5t80 172.5q0 96 -67.5 145t-192.5 49q-145 0 -280 -41l43 809h805l-23 -274h-526l-15 -268q114 12 154 12q212 0 329 -105t117 -294q0 -116 -39.5 -210.5t-117.5 -165t-203 -109t-289 -38.5q-106 0 -244 23z" />
<glyph unicode="6" horiz-adv-x="1132" d="M47 573q0 312 212.5 551t563.5 332l131 -225q-205 -73 -343 -185t-197 -251q110 96 266 96q190 0 304 -115t114 -315q0 -216 -147 -351t-382 -135q-255 0 -388.5 153t-133.5 445zM387 477q0 -121 49.5 -190.5t138.5 -69.5t139 59.5t50 165.5q0 105 -49 162.5t-129 57.5 q-107 0 -191 -70q-8 -74 -8 -115z" />
<glyph unicode="7" horiz-adv-x="985" d="M20 1153l23 274h920v-256q-168 -230 -298.5 -553t-160.5 -618h-348q24 197 100.5 418.5t168 399.5t196.5 335h-601z" />
<glyph unicode="8" horiz-adv-x="1122" d="M31 344q0 127 68 214t186 130q-215 120 -215 344q0 190 139 305t369 115q221 0 347 -97.5t126 -269.5q0 -215 -234 -303q273 -127 273 -379q0 -198 -143 -313t-392 -115q-241 0 -382.5 100.5t-141.5 268.5zM352 375q0 -90 53.5 -137.5t155.5 -47.5q86 0 140.5 49.5 t54.5 131.5q0 31 -8 58t-17.5 45.5t-32.5 37.5t-37 29t-48.5 24.5t-49.5 20t-57 20.5q-154 -89 -154 -231zM393 1071q0 -86 52.5 -135.5t156.5 -87.5q139 88 139 219q0 85 -45.5 127.5t-128.5 42.5q-77 0 -125.5 -44t-48.5 -122z" />
<glyph unicode="9" horiz-adv-x="1132" d="M35 967q0 216 144 350.5t378 134.5q255 0 391.5 -154.5t136.5 -445.5q0 -734 -811 -885l-106 215q244 70 388 180.5t181 282.5q-110 -113 -284 -113q-189 0 -303.5 117t-114.5 318zM373 985q0 -105 49 -163t129 -58q107 0 192 74q7 61 7 120q0 120 -50 186t-139 66 t-138.5 -59.5t-49.5 -165.5z" />
<glyph unicode=":" horiz-adv-x="452" d="M43 154q0 78 53 131t131 53q77 0 129 -53.5t52 -132.5q0 -78 -53.5 -129.5t-131.5 -51.5t-129 52t-51 131zM43 748q0 78 53 131t131 53q77 0 129 -53t52 -131t-53.5 -129.5t-131.5 -51.5t-129 51.5t-51 129.5z" />
<glyph unicode=";" horiz-adv-x="452" d="M25 -141q143 49 143 112q0 16 -13.5 29t-33 24.5t-39.5 27.5t-33.5 46t-13.5 72q0 72 51.5 120t130.5 48q91 0 145 -67t54 -179q0 -51 -11 -97.5t-37.5 -92t-67 -81t-104 -61t-143.5 -34.5zM43 748q0 78 53 131t131 53q77 0 129 -53t52 -131q0 -76 -53.5 -128.5 t-131.5 -52.5q-77 0 -128.5 51.5t-51.5 129.5z" />
<glyph unicode="&#x3c;" horiz-adv-x="794" d="M35 709l465 587l254 -176l-316 -411l316 -412l-254 -178z" />
<glyph unicode="=" horiz-adv-x="1009" d="M63 354v264h883v-264h-883zM63 803v264h883v-264h-883z" />
<glyph unicode="&#x3e;" horiz-adv-x="794" d="M39 297l317 412l-315 411l252 176l467 -587l-467 -588z" />
<glyph unicode="?" horiz-adv-x="866" d="M10 1315q179 135 412 135q203 0 318.5 -91.5t115.5 -258.5q0 -79 -19.5 -143t-50 -105t-68 -75.5t-74 -63.5t-66.5 -59t-47 -71.5t-15 -93.5l2 -36h-276q-6 27 -6 86q-2 71 11.5 128t37 94t52.5 67t58.5 53t53.5 44.5t39.5 49.5t15.5 61q0 60 -39 92.5t-103 32.5 q-119 0 -237 -90zM201 152q0 78 52.5 130t129.5 52q78 0 130 -52.5t52 -131.5q0 -76 -54 -128.5t-132 -52.5q-76 0 -127 52.5t-51 130.5z" />
<glyph unicode="@" horiz-adv-x="1802" d="M57 393q0 187 69 354t187.5 287.5t283.5 191t349 70.5q359 0 579 -195.5t220 -514.5q0 -258 -130.5 -429t-324.5 -171q-211 0 -278 137q-88 -137 -244 -137q-183 0 -262.5 135t-26.5 356q47 200 180 313t320 113q108 0 212 -26t152 -54l-112 -499q-19 -72 -12 -114.5 t31 -59.5t71 -17q102 0 171 124t69 314q0 268 -167 422t-458 154q-196 0 -353.5 -95.5t-246 -264.5t-88.5 -379q0 -302 167.5 -473t465.5 -171q150 0 301 54l32 -142q-174 -59 -344 -59q-376 0 -594.5 208.5t-218.5 567.5zM764 451q-65 -273 63 -273q48 0 83.5 38t52.5 112 l77 364q-40 21 -77 21q-78 0 -122.5 -62t-76.5 -200z" />
<glyph unicode="A" horiz-adv-x="1189" d="M-6 0l436 1427h354l416 -1427h-364l-78 326h-357l-82 -326h-325zM459 555h246l-33 133q-67 272 -84 391q-15 -84 -92 -391z" />
<glyph unicode="B" horiz-adv-x="1142" d="M90 0v1427h557q216 0 317 -86t101 -256q0 -111 -59 -196.5t-166 -118.5q129 -31 201.5 -124.5t72.5 -225.5q0 -420 -508 -420h-516zM424 248h154q196 0 196 188q0 93 -48 139t-148 46h-154v-373zM424 856h143q80 0 125 45.5t45 128.5q0 82 -41 118t-135 36h-137v-328z " />
<glyph unicode="C" horiz-adv-x="1105" d="M43 709q0 359 160.5 550t468.5 191q252 0 422 -125l-123 -258q-132 100 -275 100q-150 0 -218 -105t-68 -339q0 -259 65.5 -362t220.5 -103q83 0 144.5 25t130.5 73l123 -258q-172 -123 -424 -123q-307 0 -467 187.5t-160 546.5z" />
<glyph unicode="D" horiz-adv-x="1220" d="M90 0v1427h449q323 0 480 -164t157 -530q0 -167 -35 -299t-108 -230.5t-192.5 -151t-281.5 -52.5h-469zM430 276h107q59 0 99 9t77 36.5t58 77.5t33.5 134t12.5 204q0 111 -12.5 186.5t-33 121t-59 69.5t-79.5 31.5t-105 7.5h-98v-877z" />
<glyph unicode="E" horiz-adv-x="987" d="M90 0v1427h834l-23 -274h-471v-276h383v-267h-383v-334h520v-276h-860z" />
<glyph unicode="F" horiz-adv-x="935" d="M90 0v1427h828l-23 -274h-467v-293h385v-266h-383v-594h-340z" />
<glyph unicode="G" horiz-adv-x="1204" d="M43 707q0 361 163 552t470 191q258 0 438 -152l-149 -245q-128 118 -285 118q-150 0 -214.5 -103t-64.5 -347q0 -258 62.5 -370.5t204.5 -112.5q85 0 143 28v273h-188l-21 266h531v-705q-199 -125 -459 -125q-312 0 -471.5 184t-159.5 548z" />
<glyph unicode="H" horiz-adv-x="1212" d="M90 0v1427h340v-536h350v536h340v-1427h-340v616h-350v-616h-340z" />
<glyph unicode="I" horiz-adv-x="542" d="M100 0v1427h340v-1427h-340z" />
<glyph unicode="J" horiz-adv-x="542" d="M-98 -147q78 41 118 84t61 122.5t21 214.5v1153h340v-1251q0 -432 -424 -530z" />
<glyph unicode="K" horiz-adv-x="1181" d="M90 0v1427h340v-653l367 653h374l-393 -667l404 -760h-398l-354 735v-735h-340z" />
<glyph unicode="L" horiz-adv-x="925" d="M90 0v1427h340v-1151h479l-20 -276h-799z" />
<glyph unicode="M" horiz-adv-x="1544" d="M35 0l121 1427h395l133 -528q60 -231 82 -410q28 180 92 408l141 530h387l121 -1427h-331l-39 598q-22 330 -25 418q-19 -131 -80 -402l-137 -614h-274l-136 612q-68 304 -82 404q-12 -338 -16 -418l-37 -598h-315z" />
<glyph unicode="N" horiz-adv-x="1236" d="M90 0v1427h326l293 -610q107 -243 139 -328q-17 183 -17 394v544h314v-1427h-324l-297 616q-54 116 -141 328q18 -166 18 -395v-549h-311z" />
<glyph unicode="O" horiz-adv-x="1290" d="M43 696q0 228 66 396t203.5 264t334.5 96q194 0 330 -91t203 -251.5t67 -378.5q0 -756 -600 -756q-289 0 -446.5 192t-157.5 529zM410 717q0 -181 24.5 -285t75 -148t137.5 -44q89 0 138.5 42.5t72.5 144.5t23 288q0 178 -23 280t-73.5 147.5t-137.5 45.5 q-130 0 -183.5 -108.5t-53.5 -362.5z" />
<glyph unicode="P" horiz-adv-x="1124" d="M90 0v1427h459q285 0 416 -108.5t131 -343.5q0 -224 -137 -341.5t-402 -117.5h-127v-516h-340zM424 752h111q121 0 176 53t55 168q0 108 -56.5 159.5t-174.5 51.5h-111v-432z" />
<glyph unicode="Q" horiz-adv-x="1290" d="M43 696q0 228 66 396t203.5 264t334.5 96q194 0 330 -91t203 -251.5t67 -378.5q0 -245 -65.5 -392.5t-200.5 -215.5q37 -8 103 -31.5t124 -35.5q43 -10 88 -10q14 0 29 1l-16 -258q-18 -6 -49 -6q-91 0 -177.5 24.5t-188.5 68.5t-146 58q-52 19 -177 48t-190 57 q-338 143 -338 657zM410 717q0 -181 24.5 -285t75 -148t137.5 -44q89 0 138.5 42.5t72.5 144.5t23 288q0 178 -23 280t-73.5 147.5t-137.5 45.5q-130 0 -183.5 -108.5t-53.5 -362.5z" />
<glyph unicode="R" horiz-adv-x="1146" d="M90 0v1427h455q269 0 404.5 -96t135.5 -303q0 -163 -72 -253t-220 -120q100 -22 161 -163l205 -492h-371l-167 457q-29 69 -59 90.5t-93 21.5h-39v-569h-340zM430 797h102q114 0 161.5 44.5t47.5 147.5q0 95 -48.5 137.5t-153.5 42.5h-109v-372z" />
<glyph unicode="S" horiz-adv-x="1048" d="M31 104l114 261q174 -123 336 -123q105 0 160 44.5t55 121.5q0 68 -39 102t-133 57l-123 29q-162 35 -245.5 132.5t-83.5 275.5q0 206 126 327t359 121q269 0 447 -131l-140 -246q-56 46 -136 78.5t-153 32.5q-82 0 -128 -39t-46 -105q0 -55 34 -90.5t122 -56.5l127 -29 q180 -37 264 -134.5t84 -280.5q0 -234 -141.5 -355t-405.5 -121q-249 0 -454 129z" />
<glyph unicode="T" horiz-adv-x="1038" d="M23 1153v274h1015l-22 -274h-320v-1153h-342v1153h-331z" />
<glyph unicode="U" horiz-adv-x="1198" d="M82 451v976h340v-964q0 -103 41 -155t135 -52q95 0 136.5 49.5t41.5 155.5v966h340v-989q0 -229 -131 -346t-387 -117q-265 0 -390.5 116.5t-125.5 359.5z" />
<glyph unicode="V" horiz-adv-x="1189" d="M-6 1427h366l166 -688q65 -282 80 -389q17 97 88 389l172 688h334l-422 -1427h-383z" />
<glyph unicode="W" horiz-adv-x="1681" d="M4 1427h354l86 -593q34 -226 43 -406q27 200 70 403l125 596h334l121 -598q49 -239 71 -397q16 226 39 402l86 593h342l-280 -1427h-379l-107 551q-43 219 -67 416q-18 -145 -70 -416l-106 -551h-392z" />
<glyph unicode="X" horiz-adv-x="1204" d="M2 0l389 748l-362 679h385l198 -440l191 440h356l-352 -677l391 -750h-385l-229 512l-228 -512h-354z" />
<glyph unicode="Y" horiz-adv-x="1128" d="M-10 1427h366l211 -514l207 514h359l-404 -843v-584h-344v573z" />
<glyph unicode="Z" horiz-adv-x="1042" d="M39 0v248l571 905h-538l22 274h907v-247l-571 -906h576l-23 -274h-944z" />
<glyph unicode="[" horiz-adv-x="624" d="M86 -319v1818h510v-217h-197v-1384h197v-217h-510z" />
<glyph unicode="\" horiz-adv-x="716" d="M-12 1499h284l537 -1818h-283z" />
<glyph unicode="]" horiz-adv-x="624" d="M29 -102h196v1384h-196v217h510v-1818h-510v217z" />
<glyph unicode="^" horiz-adv-x="1110" d="M41 797l319 655h385l322 -655h-338l-176 393l-180 -393h-332z" />
<glyph unicode="_" horiz-adv-x="960" d="M0 -25h963v-192h-963v192z" />
<glyph unicode="`" horiz-adv-x="819" d="M139 1307l119 235l420 -237l-96 -175z" />
<glyph unicode="a" horiz-adv-x="974" d="M35 293q0 338 461 338q73 0 88 -6v90q0 57 -30.5 85.5t-100.5 28.5q-154 0 -295 -98l-109 219q90 61 208 94t245 33q204 0 304.5 -75t100.5 -263v-420q0 -106 11.5 -162.5t39.5 -101.5l-270 -82q-26 13 -47.5 46t-26.5 65q-53 -51 -110.5 -80t-143.5 -29 q-155 0 -240 85.5t-85 232.5zM338 311q0 -135 119 -135q71 0 125 66v215q-28 4 -58 4q-103 0 -144.5 -36t-41.5 -114z" />
<glyph unicode="b" d="M78 0v1430l303 53q22 -90 22 -246v-244q35 38 95 63t137 25q385 0 385 -538q0 -150 -30 -261t-85.5 -177.5t-128 -98t-164.5 -31.5q-70 0 -134 27t-103 72q-5 -35 -15 -74h-282zM403 260q46 -59 123 -59q84 0 119 70t35 253q0 173 -30.5 241.5t-108.5 68.5 q-84 0 -138 -70v-504z" />
<glyph unicode="c" horiz-adv-x="866" d="M33 526q0 264 132.5 409.5t375.5 145.5q191 0 305 -86l-82 -231q-52 35 -92.5 51t-93.5 16q-97 0 -151 -72t-54 -224q0 -161 54 -236.5t151 -75.5q55 0 96 17.5t92 54.5l82 -232q-147 -88 -326 -88q-239 0 -364 143.5t-125 407.5z" />
<glyph unicode="d" d="M37 543q0 80 12.5 153.5t42.5 144.5t75 123t116 83.5t159 31.5q127 0 213 -67v469l324 -31v-1450h-283q-8 19 -12 84q-43 -49 -108 -79t-136 -30q-192 0 -297.5 139.5t-105.5 428.5zM379 528q0 -173 30 -240t107 -67q81 0 139 68v506q-49 59 -123 59q-84 0 -118.5 -70.5 t-34.5 -255.5z" />
<glyph unicode="e" horiz-adv-x="991" d="M33 524q0 265 129.5 411t349.5 146q236 0 340 -132t104 -412v-91h-589q5 -117 54 -174t169 -57q68 0 117.5 21.5t117.5 68.5l127 -203q-174 -127 -407 -127q-255 0 -383.5 144.5t-128.5 404.5zM367 631h274v29q1 108 -27 154q-32 52 -106 52q-72 0 -106 -54.5t-35 -180.5 z" />
<glyph unicode="f" horiz-adv-x="628" d="M20 836v221h97v125q0 171 76.5 246t250.5 75q121 0 228 -47l-51 -217q-44 23 -89 23q-92 0 -92 -103v-102h172v-221h-168v-836h-323v836h-101z" />
<glyph unicode="g" horiz-adv-x="1003" d="M8 -135q0 66 33 117h278q-14 -24 -14 -60q0 -53 41 -79.5t141 -26.5q207 0 207 127q0 48 -33 66t-122 18h-217q-259 0 -259 204q0 63 38.5 121.5t105.5 96.5q-170 83 -170 280q0 166 115 259t327 93q93 0 180 -19.5t129 -19.5q53 0 124.5 11.5t88.5 17.5v-215h-139 q23 -18 41.5 -55t18.5 -92q0 -147 -111 -229t-326 -85q-163 -3 -163 -69q0 -17 18 -31t53 -14h232q186 0 278 -81t92 -225q0 -176 -132 -272t-396 -96q-232 0 -345.5 69t-113.5 189zM340 733q0 -151 135 -151q69 0 103 36.5t34 116.5q0 78 -33 114t-102 36t-103 -36 t-34 -116z" />
<glyph unicode="h" horiz-adv-x="1042" d="M78 0v1430l303 53q22 -90 22 -246v-266q117 110 277 110q152 0 223.5 -75.5t71.5 -212.5v-793h-326v690q0 79 -24.5 108t-77.5 29q-82 0 -144 -65v-762h-325z" />
<glyph unicode="i" horiz-adv-x="489" d="M76 1337q0 70 47.5 118t120.5 48t121.5 -48t48.5 -118t-48 -118t-122 -48q-72 0 -120 48.5t-48 117.5zM80 0v1044l326 29v-1073h-326z" />
<glyph unicode="j" horiz-adv-x="489" d="M-47 -219q72 43 101.5 108.5t29.5 200.5v954l326 29v-967q0 -217 -68.5 -325.5t-243.5 -175.5zM80 1337q0 70 47.5 118t120.5 48t121.5 -48t48.5 -118t-48 -118t-122 -48q-72 0 -120 48.5t-48 117.5z" />
<glyph unicode="k" horiz-adv-x="1034" d="M78 0v1430l303 53q22 -90 22 -246v-643l254 463h351l-295 -475l317 -582h-362l-265 530v-530h-325z" />
<glyph unicode="l" horiz-adv-x="522" d="M80 283v1147l303 53q23 -94 23 -246v-901q0 -56 6 -83.5t17 -35.5t32 -8q8 0 28 4l25 -209q-74 -29 -164 -29q-69 0 -118.5 15t-78.5 40t-45.5 66t-22 83.5t-5.5 103.5z" />
<glyph unicode="m" horiz-adv-x="1556" d="M78 0v1038l276 39q18 -46 21 -110q114 114 276 114q194 0 250 -135q61 66 130.5 100.5t164.5 34.5q150 0 220.5 -74.5t70.5 -209.5v-797h-320v705q0 69 -24 95.5t-74 26.5q-71 0 -127 -59v-768h-319v705q0 69 -24.5 95.5t-74.5 26.5q-71 0 -127 -59v-768h-319z" />
<glyph unicode="n" horiz-adv-x="1042" d="M78 0v1038l276 39q21 -57 21 -123q64 60 134 93.5t171 33.5q152 0 223.5 -75.5t71.5 -212.5v-793h-326v690q0 79 -24.5 108t-77.5 29q-82 0 -144 -65v-762h-325z" />
<glyph unicode="o" d="M33 526q0 251 132 403t365 152q229 0 360.5 -135t131.5 -401q0 -284 -134 -427t-364 -143q-228 0 -359.5 147.5t-131.5 403.5zM379 535q0 -190 34 -265t115 -75q75 0 110.5 79t35.5 267q0 126 -17.5 198t-48 98.5t-82.5 26.5q-50 0 -80.5 -27.5t-48.5 -101t-18 -200.5z " />
<glyph unicode="p" d="M78 -383v1419l274 41q17 -49 23 -119q42 53 112 88t148 35q385 0 385 -538q0 -568 -428 -568q-115 0 -189 64v-377zM403 260q46 -59 123 -59q84 0 119 70t35 253q0 173 -30.5 241.5t-108.5 68.5q-84 0 -138 -70v-504z" />
<glyph unicode="q" d="M37 512q0 295 111.5 431t310.5 136q69 0 131.5 -31t95.5 -79q5 42 19 88h274v-1405l-324 -47v465q-100 -97 -231 -97q-387 0 -387 539zM379 528q0 -173 30 -240t107 -67q81 0 139 68v506q-49 59 -123 59q-84 0 -118.5 -70.5t-34.5 -255.5z" />
<glyph unicode="r" horiz-adv-x="700" d="M78 0v1038l276 39q8 -19 14.5 -59t6.5 -66q31 60 86 95.5t129 35.5q66 0 115 -20l-50 -285q-52 23 -92 23q-69 0 -110 -34.5t-50 -94.5v-672h-325z" />
<glyph unicode="s" horiz-adv-x="882" d="M6 82l96 221q156 -106 324 -106q63 0 101 31t38 79q0 45 -28 63t-123 33l-74 13q-289 47 -289 319q0 163 107 254.5t301 91.5q214 0 377 -86l-82 -223q-141 88 -275 88q-63 0 -97 -26.5t-34 -71.5q0 -41 29 -58t121 -32l73 -10q146 -24 219.5 -99t73.5 -219 q0 -170 -118 -269.5t-328 -99.5q-109 0 -219 28t-193 79z" />
<glyph unicode="t" horiz-adv-x="671" d="M18 836v221h99q0 161 14 264l309 45v-309h191l-2 -221h-191v-517q0 -68 18 -89t70 -21q51 0 101 24l26 -213q-99 -47 -237 -47q-156 0 -227.5 69.5t-71.5 225.5v568h-99z" />
<glyph unicode="u" horiz-adv-x="1042" d="M70 264v778l325 29v-704q0 -79 25 -108.5t78 -29.5q80 0 143 66v747l326 29v-1053l-277 -38q-20 54 -20 122q-64 -60 -134 -93.5t-171 -33.5q-152 0 -223.5 76t-71.5 213z" />
<glyph unicode="v" horiz-adv-x="1017" d="M0 1057l336 16l92 -313q85 -298 100 -393q18 120 101 393l90 297h313l-368 -1057h-295z" />
<glyph unicode="w" horiz-adv-x="1437" d="M14 1057l310 16l65 -356q37 -190 55 -393q24 225 62 393l76 340h297l69 -340q39 -188 64 -391q21 237 51 393l61 338h316l-264 -1057h-308l-73 332q-47 207 -70 393q-20 -162 -72 -391l-75 -334h-306z" />
<glyph unicode="x" horiz-adv-x="1015" d="M-4 0l319 539l-305 518l348 14l88 -172q14 -30 28.5 -65.5t28 -68t17.5 -42.5q7 15 32.5 77.5t41.5 98.5l78 158h338l-299 -512l313 -545h-350l-94 188q-52 113 -74 185q-30 -84 -74 -183l-98 -190h-338z" />
<glyph unicode="y" horiz-adv-x="1017" d="M0 1055l338 20l102 -403q74 -310 88 -398q5 47 18 108t34.5 151.5t31.5 138.5l95 383h319l-293 -1016q-60 -212 -174.5 -314.5t-327.5 -117.5l-75 221q120 15 174.5 50.5t91.5 121.5h-78z" />
<glyph unicode="z" horiz-adv-x="884" d="M51 0v211l426 604h-403v242h770v-221l-418 -594h434l-20 -242h-789z" />
<glyph unicode="{" horiz-adv-x="737" d="M49 479v223q99 0 143 36t44 108v317q0 185 78.5 260.5t277.5 75.5h117v-217h-52q-38 0 -62.5 -10t-35.5 -30.5t-14.5 -40.5t-3.5 -50v-330q0 -190 -156 -231q73 -18 114.5 -75t41.5 -153v-333q0 -31 4 -51t16 -40t39.5 -30t71.5 -10h37v-217h-117q-196 0 -276 77.5 t-80 259.5v314q0 76 -42.5 111.5t-144.5 35.5z" />
<glyph unicode="|" horiz-adv-x="503" d="M100 -319v1818h301v-1818h-301z" />
<glyph unicode="}" horiz-adv-x="737" d="M29 -102h37q44 0 71.5 10t39.5 30t16 40t4 51v333q0 96 41.5 153t115.5 75q-74 18 -115.5 76t-41.5 155v330q0 30 -3.5 50t-15 40.5t-36 30.5t-62.5 10h-51v217h116q199 0 278 -75.5t79 -260.5v-317q0 -73 43.5 -108.5t142.5 -35.5v-223q-101 0 -143.5 -35.5 t-42.5 -111.5v-314q0 -182 -80.5 -259.5t-276.5 -77.5h-116v217z" />
<glyph unicode="~" horiz-adv-x="1163" d="M66 424q3 204 72 312t204 108q64 0 137 -25.5t125 -56.5t105.5 -56.5t83.5 -25.5q90 0 100 151l201 -12q-3 -204 -71.5 -312t-203.5 -108q-64 0 -137 25.5t-125 56.5t-105.5 56.5t-84.5 25.5q-91 0 -101 -151z" />
<glyph unicode="&#xa1;" horiz-adv-x="522" d="M59 -393l62 979h266l62 -959zM72 899q0 77 53.5 128.5t132.5 51.5q77 0 127.5 -51t50.5 -129t-52.5 -131t-129.5 -53q-78 0 -130 53t-52 131z" />
<glyph unicode="&#xa2;" horiz-adv-x="899" d="M47 526q0 223 95 363t274 178v170h256v-166q109 -17 188 -76l-82 -231q-52 35 -92.5 51t-93.5 16q-97 0 -151 -72t-54 -224q0 -161 54 -236.5t151 -75.5q55 0 96 17.5t92 54.5l82 -232q-97 -57 -205 -77v-158h-256v162q-174 37 -264 174.5t-90 361.5z" />
<glyph unicode="&#xa3;" horiz-adv-x="1083" d="M47 0v276h156v306h-150v258h140v110q0 247 120.5 374.5t358.5 127.5q131 0 235.5 -39t169.5 -104l-141 -242q-101 98 -231 98q-88 0 -134 -48.5t-45 -143.5v-133h308v-258h-302v-306h519v-276h-1004z" />
<glyph unicode="&#xa4;" horiz-adv-x="1179" d="M31 420l149 145q-22 61 -22 131q0 82 30 150l-157 151l198 197l170 -176q50 24 115 24q66 0 121 -22l170 174l196 -195q-157 -151 -159 -151q26 -67 26 -135q0 -79 -24 -140l157 -151l-198 -197l-152 156q-59 -27 -139 -27q-76 0 -135 27l-152 -156zM410 700 q0 -107 24.5 -149.5t81.5 -42.5q100 0 100 203q0 107 -22.5 143.5t-81.5 36.5q-53 0 -77.5 -43t-24.5 -148z" />
<glyph unicode="&#xa5;" horiz-adv-x="1140" d="M16 1427h367l197 -493l192 493h356l-327 -643h272v-215h-340v-120h340v-216h-336v-233h-334v233h-337v216h340v120h-340v215h268z" />
<glyph unicode="&#xa6;" horiz-adv-x="503" d="M100 -319v768h301v-768h-301zM100 731v768h301v-768h-301z" />
<glyph unicode="&#xa7;" horiz-adv-x="1118" d="M33 539q0 207 192 290q-108 94 -108 248q0 181 119.5 278t338.5 97q244 0 410 -115l-113 -233q-61 39 -140 67.5t-154 28.5q-156 0 -156 -102q0 -46 32 -68.5t115 -42.5l150 -33q82 -16 144.5 -41.5t114.5 -65.5t79.5 -100.5t27.5 -138.5q0 -208 -192 -291 q108 -94 108 -249q0 -187 -131.5 -289.5t-380.5 -102.5q-248 0 -426 121l113 234q66 -42 155 -72.5t179 -30.5q186 0 186 119q0 44 -31 68.5t-116 44.5l-150 33q-82 16 -144.5 41.5t-114.5 65.5t-79.5 100.5t-27.5 138.5zM315 600q0 -54 40.5 -84.5t123.5 -52.5l178 -37 q8 -2 25 -6t25 -6q96 26 96 133q0 54 -40.5 84.5t-123.5 52.5l-178 37q-27 6 -51 12q-95 -30 -95 -133z" />
<glyph unicode="&#xa8;" horiz-adv-x="819" d="M51 1284q0 64 43 108t111 44q67 0 111 -44t44 -108t-43.5 -109t-111.5 -45q-65 0 -109.5 45t-44.5 109zM455 1284q0 64 43.5 108t111.5 44q67 0 110.5 -44t43.5 -108t-43 -109t-111 -45q-65 0 -110 45t-45 109z" />
<glyph unicode="&#xa9;" horiz-adv-x="1763" d="M51 713q0 177 63 332t172.5 265.5t264 174t330.5 63.5q236 0 425.5 -108t295.5 -298.5t106 -428.5q0 -177 -62.5 -332t-171 -265t-262.5 -173.5t-331 -63.5q-235 0 -425 108t-297.5 299t-107.5 427zM199 713q0 -195 88 -355.5t244.5 -253t349.5 -92.5q194 0 350.5 92.5 t244 253t87.5 355.5q0 196 -87.5 357t-244 254t-350.5 93q-193 0 -349.5 -93t-244.5 -254.5t-88 -356.5zM520 715q0 442 406 442q153 0 252 -74l-82 -182q-69 53 -150 53q-87 0 -124.5 -56t-37.5 -175q0 -128 36 -185t126 -57q84 0 150 51l82 -180q-99 -71 -252 -71 q-205 0 -305.5 107.5t-100.5 326.5z" />
<glyph unicode="&#xaa;" horiz-adv-x="765" d="M33 848q0 260 352 260q60 0 68 -4v67q0 86 -101 86q-119 0 -225 -75l-86 172q151 98 348 98q159 0 237.5 -58t78.5 -204v-320q0 -82 9 -125.5t31 -76.5l-213 -66q-21 10 -36.5 34t-20.5 50q-80 -84 -192 -84q-124 0 -187 68t-63 178zM268 862q0 -100 92 -100q56 0 91 49 v164q-10 2 -43 2q-75 0 -107.5 -28.5t-32.5 -86.5z" />
<glyph unicode="&#xab;" horiz-adv-x="1097" d="M33 516l329 483l222 -129l-207 -354l207 -354l-222 -129zM514 516l332 483l221 -129l-209 -354l209 -354l-221 -129z" />
<glyph unicode="&#xac;" horiz-adv-x="1011" d="M63 700v269h883v-613h-282v344h-601z" />
<glyph unicode="&#xad;" horiz-adv-x="679" d="M61 434v271h560v-271h-560z" />
<glyph unicode="&#xae;" horiz-adv-x="1112" d="M45 940q0 221 144.5 366.5t365.5 145.5q220 0 364 -145.5t144 -366.5q0 -220 -144.5 -366t-363.5 -146q-221 0 -365.5 146t-144.5 366zM145 940q0 -178 117 -299t293 -121q174 0 290 121t116 299q0 179 -116 300.5t-290 121.5q-176 0 -293 -122t-117 -300zM352 694v512 h223q100 0 149.5 -34t49.5 -109q0 -119 -104 -137q43 -9 61 -60l70 -172h-164l-55 156q-7 22 -15 28.5t-26 6.5h-37v-191h-152zM504 979h49q37 0 52.5 15t15.5 48q0 60 -66 60h-51v-123z" />
<glyph unicode="&#xaf;" horiz-adv-x="819" d="M94 1167v197h631v-197h-631z" />
<glyph unicode="&#xb0;" horiz-adv-x="804" d="M47 1096q0 153 99 250.5t257 97.5q165 0 260 -88.5t95 -239.5q0 -168 -94.5 -265t-262.5 -97q-160 0 -257 94.5t-97 247.5zM299 1102q0 -108 25 -151.5t82 -43.5q100 0 100 203q0 109 -23 145.5t-82 36.5q-53 0 -77.5 -42.5t-24.5 -147.5z" />
<glyph unicode="&#xb1;" horiz-adv-x="989" d="M70 23v274h848v-274h-848zM70 729v275h282v301h283v-301h283v-275h-283v-301h-283v301h-282z" />
<glyph unicode="&#xb2;" horiz-adv-x="704" d="M35 1356q115 96 307 96q136 0 215.5 -68t79.5 -192q0 -60 -21.5 -116t-65 -108t-92.5 -95.5t-120 -96.5h324l-15 -194h-600v182q78 69 120 107.5t86 82t64 71.5t32.5 56.5t12.5 55.5q0 102 -106 102q-80 0 -160 -72z" />
<glyph unicode="&#xb3;" horiz-adv-x="684" d="M33 1366q51 36 128 61t156 25q142 0 226 -59.5t84 -159.5q0 -69 -35.5 -118.5t-104.5 -72.5q164 -35 164 -196q0 -130 -106.5 -204.5t-292.5 -74.5q-66 0 -182 19l-13 170q108 -17 150 -17q172 0 172 115q0 86 -141 86q-16 0 -44.5 -2.5t-37.5 -3.5v162h63q80 1 115 24.5 t35 71.5q0 35 -25 55.5t-68 20.5q-91 0 -172 -64z" />
<glyph unicode="&#xb4;" horiz-adv-x="819" d="M139 1305l422 237l119 -235l-442 -177z" />
<glyph unicode="&#xb5;" horiz-adv-x="1050" d="M78 -383v1425l325 29v-709q0 -74 26 -103.5t79 -29.5q76 0 141 68v745l326 29v-1053l-277 -38q-20 54 -20 124q-59 -55 -122.5 -86.5t-152.5 -37.5v-318z" />
<glyph unicode="&#xb6;" horiz-adv-x="1177" d="M25 1008q0 206 131 312.5t391 106.5h540v-1685h-231v1526h-147v-1526h-232v850q-209 0 -330.5 107.5t-121.5 308.5z" />
<glyph unicode="&#xb7;" horiz-adv-x="577" d="M76 563q0 88 62 151.5t151 63.5t150 -64t61 -155q0 -85 -63 -147t-152 -62t-149 62.5t-60 150.5z" />
<glyph unicode="&#xb8;" horiz-adv-x="817" d="M193 -385l45 129q52 -27 108 -27q40 0 63 17.5t23 46.5q0 25 -23 40t-61 15q-9 0 -57 -6l-19 29l64 141h162l-35 -74q81 0 131.5 -42.5t50.5 -110.5q0 -90 -69.5 -143.5t-196.5 -53.5q-113 0 -186 39z" />
<glyph unicode="&#xb9;" horiz-adv-x="661" d="M33 1255l235 172h215v-651h119v-194h-514v194h137v371l-121 -64z" />
<glyph unicode="&#xba;" horiz-adv-x="829" d="M33 1026q0 194 103.5 310t281.5 116q173 0 276 -103.5t103 -308.5q0 -219 -104 -328.5t-281 -109.5q-173 0 -276 113t-103 311zM303 1030q0 -143 26 -200.5t87 -57.5q55 0 82.5 62t27.5 204q0 139 -26.5 191.5t-85.5 52.5q-54 0 -82.5 -55.5t-28.5 -196.5z" />
<glyph unicode="&#xbb;" horiz-adv-x="1097" d="M33 162l209 354l-209 354l221 129l332 -483l-332 -483zM516 162l207 354l-207 354l221 129l330 -483l-330 -483z" />
<glyph unicode="&#xbc;" horiz-adv-x="1783" d="M39 1255l235 172h218v-651h118v-194h-514v194h135v371l-120 -64zM381 0l782 1427h234l-781 -1427h-235zM1008 168v192l252 496h251l-247 -496h163v23q0 61 15 158l6 32l211 27v-238h88v-194h-88v-168h-246v168h-405z" />
<glyph unicode="&#xbd;" horiz-adv-x="1761" d="M35 1255l235 172h215v-651h119v-194h-514v194h137v371l-121 -64zM365 0l780 1427h235l-782 -1427h-233zM1098 774q115 96 307 96q136 0 215.5 -68t79.5 -192q0 -60 -21.5 -115.5t-65.5 -107.5t-92.5 -95.5t-119.5 -96.5h323l-14 -195h-600v182q78 69 120 107.5t86 82 t64 71.5t32.5 56.5t12.5 55.5q0 102 -106 102q-81 0 -160 -71z" />
<glyph unicode="&#xbe;" horiz-adv-x="1773" d="M49 1366q51 36 128.5 61t156.5 25q142 0 225.5 -59.5t83.5 -159.5q0 -144 -139 -191q164 -38 164 -196q0 -130 -107 -204.5t-293 -74.5q-66 0 -182 19l-12 170q108 -17 149 -17q172 0 172 115q0 86 -141 86q-17 0 -45.5 -2.5t-36.5 -3.5v162h64q80 1 114.5 24.5 t34.5 71.5q0 35 -25 55.5t-67 20.5q-91 0 -172 -64zM362 0l781 1427h235l-782 -1427h-234zM997 168v192l250 496h254l-250 -496h166v23q0 85 15 158l6 32l213 27v-238h86v-194h-86v-168h-250v168h-404z" />
<glyph unicode="&#xbf;" horiz-adv-x="866" d="M10 -49q0 79 19.5 142.5t50 104.5t68 75t74 62.5t66.5 58.5t47 71.5t15 93.5l-2 37h277q6 -54 6 -84q2 -71 -11.5 -128.5t-37.5 -95t-53 -67.5t-58 -53t-53.5 -45t-40 -50t-15.5 -61q0 -59 39.5 -92t102.5 -33q116 0 237 93l115 -246q-181 -133 -412 -133 q-203 0 -318.5 91t-115.5 259zM301 899q0 77 53.5 128.5t132.5 51.5q77 0 128 -51t51 -129t-53.5 -131t-131.5 -53q-76 0 -128 53t-52 131z" />
<glyph unicode="&#xc0;" horiz-adv-x="1189" d="M-6 0l436 1427h354l416 -1427h-364l-78 326h-357l-82 -326h-325zM324 1677l118 236l420 -238l-96 -174zM459 555h246l-33 133q-67 272 -84 391q-15 -84 -92 -391z" />
<glyph unicode="&#xc1;" horiz-adv-x="1189" d="M-6 0l436 1427h354l416 -1427h-364l-78 326h-357l-82 -326h-325zM324 1675l421 238l119 -236l-442 -176zM459 555h246l-33 133q-67 272 -84 391q-15 -84 -92 -391z" />
<glyph unicode="&#xc2;" horiz-adv-x="1189" d="M-6 0l436 1427h354l416 -1427h-364l-78 326h-357l-82 -326h-325zM242 1657l350 248l350 -248l-106 -162l-244 145l-246 -145zM459 555h246l-33 133q-67 272 -84 391q-15 -84 -92 -391z" />
<glyph unicode="&#xc3;" horiz-adv-x="1189" d="M-6 0l436 1427h354l416 -1427h-364l-78 326h-357l-82 -326h-325zM205 1526q3 309 211 309q58 0 125 -27.5t120.5 -54.5t79.5 -27q36 0 52.5 25t19.5 78l166 -8q-3 -160 -55.5 -237t-155.5 -77q-46 0 -99 17.5t-91.5 38t-77.5 38t-60 17.5q-34 0 -50 -24.5t-19 -75.5z M459 555h246l-33 133q-67 272 -84 391q-15 -84 -92 -391z" />
<glyph unicode="&#xc4;" horiz-adv-x="1189" d="M-6 0l436 1427h354l416 -1427h-364l-78 326h-357l-82 -326h-325zM236 1655q0 64 42.5 107.5t110.5 43.5q67 0 111.5 -43.5t44.5 -107.5t-44 -109t-112 -45q-65 0 -109 45t-44 109zM459 555h246l-33 133q-67 272 -84 391q-15 -84 -92 -391zM639 1655q0 64 44 107.5 t112 43.5q67 0 110 -43.5t43 -107.5q0 -65 -42.5 -109.5t-110.5 -44.5q-65 0 -110.5 45.5t-45.5 108.5z" />
<glyph unicode="&#xc5;" horiz-adv-x="1189" d="M-6 0l436 1427h354l416 -1427h-364l-78 326h-357l-82 -326h-325zM377 1704q0 88 61 150.5t154 62.5q91 0 153 -63t62 -150q0 -89 -60.5 -151t-154.5 -62q-90 0 -152.5 62.5t-62.5 150.5zM459 555h246l-33 133q-67 272 -84 391q-15 -84 -92 -391zM477 1704q0 -50 33 -86.5 t82 -36.5q51 0 83 36t32 87q0 50 -32.5 85.5t-82.5 35.5q-51 0 -83 -35t-32 -86z" />
<glyph unicode="&#xc6;" horiz-adv-x="1708" d="M-27 0l725 1427h951l-23 -274h-473v-276h383v-267h-383v-334h520v-276h-852v324h-354l-150 -324h-344zM573 555h248v551q-24 -65 -172 -391z" />
<glyph unicode="&#xc7;" horiz-adv-x="1105" d="M43 709q0 359 160.5 550t468.5 191q252 0 422 -125l-123 -258q-132 100 -275 100q-150 0 -218 -105t-68 -339q0 -259 65.5 -362t220.5 -103q83 0 144.5 25t130.5 73l123 -258q-172 -123 -424 -123h-15l-22 -49q81 0 131.5 -42.5t50.5 -110.5q0 -90 -69.5 -143.5 t-196.5 -53.5q-114 0 -187 39l46 129q53 -27 108 -27q40 0 63 17.5t23 46.5q0 25 -23 40t-61 15q-9 0 -57 -6l-19 29l60 133q-226 46 -342.5 228t-116.5 489z" />
<glyph unicode="&#xc8;" horiz-adv-x="987" d="M90 0v1427h834l-23 -274h-471v-276h383v-267h-383v-334h520v-276h-860zM223 1677l119 236l420 -238l-96 -174z" />
<glyph unicode="&#xc9;" horiz-adv-x="987" d="M90 0v1427h834l-23 -274h-471v-276h383v-267h-383v-334h520v-276h-860zM223 1675l422 238l119 -236l-442 -176z" />
<glyph unicode="&#xca;" horiz-adv-x="987" d="M90 0v1427h834l-23 -274h-471v-276h383v-267h-383v-334h520v-276h-860zM141 1657l351 248l350 -248l-107 -162l-243 145l-246 -145z" />
<glyph unicode="&#xcb;" horiz-adv-x="987" d="M90 0v1427h834l-23 -274h-471v-276h383v-267h-383v-334h520v-276h-860zM135 1655q0 64 43 107.5t111 43.5q67 0 111 -43.5t44 -107.5t-43.5 -109t-111.5 -45q-65 0 -109.5 45t-44.5 109zM539 1655q0 64 43.5 107.5t111.5 43.5q67 0 110.5 -43.5t43.5 -107.5t-43 -109 t-111 -45q-65 0 -110 45t-45 109z" />
<glyph unicode="&#xcc;" horiz-adv-x="542" d="M0 1677l119 236l420 -238l-97 -174zM100 0v1427h340v-1427h-340z" />
<glyph unicode="&#xcd;" horiz-adv-x="542" d="M0 1675l422 238l119 -236l-443 -176zM100 0v1427h340v-1427h-340z" />
<glyph unicode="&#xce;" horiz-adv-x="542" d="M-82 1657l350 248l350 -248l-106 -162l-244 145l-245 -145zM100 0v1427h340v-1427h-340z" />
<glyph unicode="&#xcf;" horiz-adv-x="542" d="M-88 1655q0 64 43 107.5t111 43.5q67 0 111 -43.5t44 -107.5t-43.5 -109t-111.5 -45q-65 0 -109.5 45t-44.5 109zM100 0v1427h340v-1427h-340zM315 1655q0 64 44 107.5t112 43.5q67 0 110.5 -43.5t43.5 -107.5t-43 -109t-111 -45q-65 0 -110.5 45.5t-45.5 108.5z" />
<glyph unicode="&#xd0;" horiz-adv-x="1265" d="M4 596v258h131v573h451q322 0 479.5 -164t157.5 -530q0 -167 -35.5 -299t-108.5 -230.5t-193 -151t-282 -52.5h-469v596h-131zM475 276h109q59 0 98 9t76 36.5t58 77.5t33.5 134t12.5 204q0 93 -7.5 160.5t-25 113t-39 74t-57 43.5t-71 20t-87.5 5h-100v-299h197 l-23 -258h-174v-320z" />
<glyph unicode="&#xd1;" horiz-adv-x="1236" d="M90 0v1427h326l293 -610q107 -243 139 -328q-17 183 -17 394v544h314v-1427h-324l-297 616q-54 116 -141 328q18 -166 18 -395v-549h-311zM229 1526q3 309 211 309q58 0 125.5 -27.5t121 -54.5t79.5 -27q36 0 52.5 25t19.5 78l166 -8q-3 -160 -55.5 -237t-155.5 -77 q-46 0 -99 17.5t-91.5 38t-77.5 38t-60 17.5q-34 0 -50.5 -24.5t-19.5 -75.5z" />
<glyph unicode="&#xd2;" horiz-adv-x="1290" d="M43 696q0 228 66 396t203.5 264t334.5 96q194 0 330 -91t203 -251.5t67 -378.5q0 -756 -600 -756q-289 0 -446.5 192t-157.5 529zM375 1677l119 236l419 -238l-96 -174zM410 717q0 -181 24.5 -285t75 -148t137.5 -44q89 0 138.5 42.5t72.5 144.5t23 288q0 178 -23 280 t-73.5 147.5t-137.5 45.5q-130 0 -183.5 -108.5t-53.5 -362.5z" />
<glyph unicode="&#xd3;" horiz-adv-x="1290" d="M43 696q0 228 66 396t203.5 264t334.5 96q194 0 330 -91t203 -251.5t67 -378.5q0 -756 -600 -756q-289 0 -446.5 192t-157.5 529zM375 1675l422 238l118 -236l-442 -176zM410 717q0 -181 24.5 -285t75 -148t137.5 -44q89 0 138.5 42.5t72.5 144.5t23 288q0 178 -23 280 t-73.5 147.5t-137.5 45.5q-130 0 -183.5 -108.5t-53.5 -362.5z" />
<glyph unicode="&#xd4;" horiz-adv-x="1290" d="M43 696q0 228 66 396t203.5 264t334.5 96q194 0 330 -91t203 -251.5t67 -378.5q0 -756 -600 -756q-289 0 -446.5 192t-157.5 529zM293 1657l350 248l350 -248l-106 -162l-244 145l-246 -145zM410 717q0 -181 24.5 -285t75 -148t137.5 -44q89 0 138.5 42.5t72.5 144.5 t23 288q0 178 -23 280t-73.5 147.5t-137.5 45.5q-130 0 -183.5 -108.5t-53.5 -362.5z" />
<glyph unicode="&#xd5;" horiz-adv-x="1290" d="M43 696q0 228 66 396t203.5 264t334.5 96q194 0 330 -91t203 -251.5t67 -378.5q0 -756 -600 -756q-289 0 -446.5 192t-157.5 529zM256 1526q3 309 211 309q58 0 125.5 -27.5t121 -54.5t79.5 -27q36 0 52 25t19 78l166 -8q-3 -160 -55.5 -237t-155.5 -77 q-58 0 -125.5 27.5t-121.5 55.5t-80 28q-34 0 -50.5 -24.5t-19.5 -75.5zM410 717q0 -181 24.5 -285t75 -148t137.5 -44q89 0 138.5 42.5t72.5 144.5t23 288q0 178 -23 280t-73.5 147.5t-137.5 45.5q-130 0 -183.5 -108.5t-53.5 -362.5z" />
<glyph unicode="&#xd6;" horiz-adv-x="1290" d="M43 696q0 228 66 396t203.5 264t334.5 96q194 0 330 -91t203 -251.5t67 -378.5q0 -756 -600 -756q-289 0 -446.5 192t-157.5 529zM287 1655q0 64 42.5 107.5t110.5 43.5q67 0 111.5 -43.5t44.5 -107.5t-44 -109t-112 -45q-65 0 -109 45t-44 109zM410 717 q0 -181 24.5 -285t75 -148t137.5 -44q89 0 138.5 42.5t72.5 144.5t23 288q0 178 -23 280t-73.5 147.5t-137.5 45.5q-130 0 -183.5 -108.5t-53.5 -362.5zM690 1655q0 64 44 107.5t112 43.5q67 0 110 -43.5t43 -107.5q0 -65 -42.5 -109.5t-110.5 -44.5q-66 0 -111 45.5 t-45 108.5z" />
<glyph unicode="&#xd7;" horiz-adv-x="1058" d="M45 420l297 289l-297 288l199 197l286 -297l289 297l197 -195l-297 -288l297 -289l-199 -197l-289 297l-288 -297z" />
<glyph unicode="&#xd8;" horiz-adv-x="1290" d="M37 696q0 228 66 396t203.5 264t334.5 96q150 0 264 -66l115 193l209 -94l-137 -236q149 -190 149 -518q0 -756 -600 -756q-144 0 -258 60l-125 -215l-209 94l148 252q-160 196 -160 530zM397 717q0 -130 23 -209l362 629q-48 51 -141 51q-131 0 -187.5 -109.5 t-56.5 -361.5zM504 285q54 -45 137 -45q90 0 140.5 42t75 145t24.5 288q0 109 -21 182q-354 -612 -356 -612z" />
<glyph unicode="&#xd9;" horiz-adv-x="1198" d="M82 451v976h340v-964q0 -103 41 -155t135 -52q95 0 136.5 49.5t41.5 155.5v966h340v-989q0 -229 -131 -346t-387 -117q-265 0 -390.5 116.5t-125.5 359.5zM330 1679l119 236l419 -238l-96 -174z" />
<glyph unicode="&#xda;" horiz-adv-x="1198" d="M82 451v976h340v-964q0 -103 41 -155t135 -52q95 0 136.5 49.5t41.5 155.5v966h340v-989q0 -229 -131 -346t-387 -117q-265 0 -390.5 116.5t-125.5 359.5zM319 1677l422 238l119 -236l-442 -176z" />
<glyph unicode="&#xdb;" horiz-adv-x="1198" d="M82 451v976h340v-964q0 -103 41 -155t135 -52q95 0 136.5 49.5t41.5 155.5v966h340v-989q0 -229 -131 -346t-387 -117q-265 0 -390.5 116.5t-125.5 359.5zM238 1659l350 248l350 -248l-107 -162l-243 145l-246 -145z" />
<glyph unicode="&#xdc;" horiz-adv-x="1198" d="M82 451v976h340v-964q0 -103 41 -155t135 -52q95 0 136.5 49.5t41.5 155.5v966h340v-989q0 -229 -131 -346t-387 -117q-265 0 -390.5 116.5t-125.5 359.5zM231 1657q0 64 43 107.5t111 43.5q67 0 111.5 -43.5t44.5 -107.5t-44 -109t-112 -45q-65 0 -109.5 45t-44.5 109z M635 1657q0 64 44 107.5t112 43.5q67 0 110 -43.5t43 -107.5q0 -65 -42.5 -109.5t-110.5 -44.5q-65 0 -110.5 45.5t-45.5 108.5z" />
<glyph unicode="&#xdd;" horiz-adv-x="1128" d="M-10 1427h366l211 -514l207 514h359l-404 -843v-584h-344v573zM293 1675l422 238l119 -236l-443 -176z" />
<glyph unicode="&#xde;" horiz-adv-x="1132" d="M90 0v1427h340v-219h119q284 6 415.5 -104.5t131.5 -347.5q0 -224 -137 -341.5t-402 -117.5h-127v-297h-340zM424 532h111q121 0 176 53.5t55 168.5q0 108 -56.5 159.5t-174.5 51.5h-111v-433z" />
<glyph unicode="&#xdf;" horiz-adv-x="1144" d="M78 0v1077q0 209 122.5 317.5t366.5 108.5q219 0 340 -92.5t121 -255.5q0 -54 -16.5 -99.5t-41.5 -74t-54.5 -53.5t-54.5 -41t-41.5 -34t-16.5 -34t22.5 -35.5t56.5 -39.5t73.5 -53t73.5 -71.5t56.5 -100t22.5 -134.5q0 -201 -105.5 -303t-300.5 -102q-130 0 -219 32 l25 234q60 -25 104 -25q156 0 156 164q0 42 -20.5 77.5t-51.5 59.5t-67.5 51.5t-67.5 52.5t-51.5 63.5t-20.5 84.5q0 38 15 71.5t38 56.5l49.5 49.5t49.5 50t38 58t15 73.5q0 58 -38 93.5t-101 35.5q-154 0 -154 -179v-845q0 -144 -22 -238h-301z" />
<glyph unicode="&#xe0;" horiz-adv-x="974" d="M35 293q0 338 461 338q73 0 88 -6v90q0 57 -30.5 85.5t-100.5 28.5q-154 0 -295 -98l-109 219q90 61 208 94t245 33q204 0 304.5 -75t100.5 -263v-420q0 -106 11.5 -162.5t39.5 -101.5l-270 -82q-26 13 -47.5 46t-26.5 65q-53 -51 -110.5 -80t-143.5 -29 q-155 0 -240 85.5t-85 232.5zM217 1307l119 235l420 -237l-97 -175zM338 311q0 -135 119 -135q71 0 125 66v215q-28 4 -58 4q-103 0 -144.5 -36t-41.5 -114z" />
<glyph unicode="&#xe1;" horiz-adv-x="974" d="M35 293q0 338 461 338q73 0 88 -6v90q0 57 -30.5 85.5t-100.5 28.5q-154 0 -295 -98l-109 219q90 61 208 94t245 33q204 0 304.5 -75t100.5 -263v-420q0 -106 11.5 -162.5t39.5 -101.5l-270 -82q-26 13 -47.5 46t-26.5 65q-53 -51 -110.5 -80t-143.5 -29 q-155 0 -240 85.5t-85 232.5zM217 1305l422 237l119 -235l-443 -177zM338 311q0 -135 119 -135q71 0 125 66v215q-28 4 -58 4q-103 0 -144.5 -36t-41.5 -114z" />
<glyph unicode="&#xe2;" horiz-adv-x="974" d="M35 293q0 338 461 338q73 0 88 -6v90q0 57 -30.5 85.5t-100.5 28.5q-154 0 -295 -98l-109 219q90 61 208 94t245 33q204 0 304.5 -75t100.5 -263v-420q0 -106 11.5 -162.5t39.5 -101.5l-270 -82q-26 13 -47.5 46t-26.5 65q-53 -51 -110.5 -80t-143.5 -29 q-155 0 -240 85.5t-85 232.5zM135 1286l350 248l351 -248l-107 -162l-244 146l-245 -146zM338 311q0 -135 119 -135q71 0 125 66v215q-28 4 -58 4q-103 0 -144.5 -36t-41.5 -114z" />
<glyph unicode="&#xe3;" horiz-adv-x="974" d="M35 293q0 338 461 338q73 0 88 -6v90q0 57 -30.5 85.5t-100.5 28.5q-154 0 -295 -98l-109 219q90 61 208 94t245 33q204 0 304.5 -75t100.5 -263v-420q0 -106 11.5 -162.5t39.5 -101.5l-270 -82q-26 13 -47.5 46t-26.5 65q-53 -51 -110.5 -80t-143.5 -29 q-155 0 -240 85.5t-85 232.5zM98 1155q3 309 211 309q58 0 125.5 -27t121 -54t79.5 -27q36 0 52.5 24.5t19.5 77.5l165 -8q-3 -160 -55 -236.5t-155 -76.5q-58 0 -126 27.5t-122 55t-80 27.5q-34 0 -50.5 -24.5t-19.5 -75.5zM338 311q0 -135 119 -135q71 0 125 66v215 q-28 4 -58 4q-103 0 -144.5 -36t-41.5 -114z" />
<glyph unicode="&#xe4;" horiz-adv-x="974" d="M35 293q0 338 461 338q73 0 88 -6v90q0 57 -30.5 85.5t-100.5 28.5q-154 0 -295 -98l-109 219q90 61 208 94t245 33q204 0 304.5 -75t100.5 -263v-420q0 -106 11.5 -162.5t39.5 -101.5l-270 -82q-26 13 -47.5 46t-26.5 65q-53 -51 -110.5 -80t-143.5 -29 q-155 0 -240 85.5t-85 232.5zM129 1284q0 64 43 108t111 44q67 0 111 -44t44 -108t-43.5 -109t-111.5 -45q-65 0 -109.5 45t-44.5 109zM338 311q0 -135 119 -135q71 0 125 66v215q-28 4 -58 4q-103 0 -144.5 -36t-41.5 -114zM532 1284q0 64 44 108t112 44q67 0 110.5 -44 t43.5 -108t-43 -109t-111 -45q-66 0 -111 45t-45 109z" />
<glyph unicode="&#xe5;" horiz-adv-x="974" d="M35 293q0 338 461 338q73 0 88 -6v90q0 57 -30.5 85.5t-100.5 28.5q-154 0 -295 -98l-109 219q90 61 208 94t245 33q204 0 304.5 -75t100.5 -263v-420q0 -106 11.5 -162.5t39.5 -101.5l-270 -82q-26 13 -47.5 46t-26.5 65q-53 -51 -110.5 -80t-143.5 -29 q-155 0 -240 85.5t-85 232.5zM270 1346q0 88 61 150.5t154 62.5q91 0 153 -63t62 -150q0 -89 -60.5 -151t-154.5 -62q-90 0 -152.5 62.5t-62.5 150.5zM338 311q0 -135 119 -135q71 0 125 66v215q-28 4 -58 4q-103 0 -144.5 -36t-41.5 -114zM371 1346q0 -50 32.5 -86.5 t81.5 -36.5q51 0 83 36t32 87q0 50 -32.5 85t-82.5 35q-51 0 -82.5 -34.5t-31.5 -85.5z" />
<glyph unicode="&#xe6;" horiz-adv-x="1529" d="M35 293q0 338 461 338q73 0 88 -6v90q0 57 -30.5 85.5t-100.5 28.5q-154 0 -295 -98l-109 219q90 61 205.5 94t232.5 33q206 0 293 -78q111 82 273 82q236 0 340 -132t104 -412v-91h-590q5 -117 54.5 -174t171.5 -57q67 0 116 21.5t117 68.5l127 -203 q-174 -127 -408 -127q-258 0 -383 156q-44 -77 -127 -116.5t-192 -39.5q-174 0 -261 84.5t-87 233.5zM338 311q0 -135 125 -135q116 0 119 133v1v1v1v1v1v1v1v1v1v1v1v1v1v1v1v1v1v1v1v1v1v1v1v1v1v1v1v1v1v1v2v1v1v1v1v1v2v1v1v1v1v2v1v1v2v1v1v2v1v1v2v1v1v2v1v2v1v1v2v1 v2v1v2v1v2v1v2v1v2v1v2v2v1v2v1v2v2v1v2v2v1v2v2v1v2v2v1v2v2v1v2v2v2v1v2v2v2v2v1v2v2v2v9q-28 4 -58 4q-103 0 -144.5 -36t-41.5 -114zM907 631h275q4 131 -27.5 183t-105.5 52q-72 0 -106.5 -55t-35.5 -180z" />
<glyph unicode="&#xe7;" horiz-adv-x="866" d="M33 526q0 264 132.5 409.5t375.5 145.5q191 0 305 -86l-82 -231q-52 35 -92.5 51t-93.5 16q-97 0 -151 -72t-54 -224q0 -161 54 -236.5t151 -75.5q55 0 96 17.5t92 54.5l82 -232q-147 -88 -326 -88l-22 -49q81 0 131.5 -42.5t50.5 -110.5q0 -90 -69.5 -143.5 t-196.5 -53.5q-114 0 -187 39l45 129q52 -27 109 -27q40 0 63 17.5t23 46.5q0 25 -23 40t-61 15q-9 0 -57 -6l-19 29l60 135q-165 41 -250.5 177.5t-85.5 354.5z" />
<glyph unicode="&#xe8;" horiz-adv-x="991" d="M33 524q0 265 129.5 411t349.5 146q236 0 340 -132t104 -412v-91h-589q5 -117 54 -174t169 -57q68 0 117.5 21.5t117.5 68.5l127 -203q-174 -127 -407 -127q-255 0 -383.5 144.5t-128.5 404.5zM180 1307l119 235l420 -237l-96 -175zM367 631h274q4 131 -27.5 183 t-105.5 52q-72 0 -106 -54.5t-35 -180.5z" />
<glyph unicode="&#xe9;" horiz-adv-x="991" d="M33 524q0 265 129.5 411t349.5 146q236 0 340 -132t104 -412v-91h-589q5 -117 54 -174t169 -57q68 0 117.5 21.5t117.5 68.5l127 -203q-174 -127 -407 -127q-255 0 -383.5 144.5t-128.5 404.5zM225 1305l422 237l119 -235l-442 -177zM367 631h274q4 131 -27.5 183 t-105.5 52q-72 0 -106 -54.5t-35 -180.5z" />
<glyph unicode="&#xea;" horiz-adv-x="991" d="M33 524q0 265 129.5 411t349.5 146q236 0 340 -132t104 -412v-91h-589q5 -117 54 -174t169 -57q68 0 117.5 21.5t117.5 68.5l127 -203q-174 -127 -407 -127q-255 0 -383.5 144.5t-128.5 404.5zM143 1286l351 248l350 -248l-107 -162l-243 146l-246 -146zM367 631h274 q4 131 -27.5 183t-105.5 52q-72 0 -106 -54.5t-35 -180.5z" />
<glyph unicode="&#xeb;" horiz-adv-x="991" d="M33 524q0 265 129.5 411t349.5 146q236 0 340 -132t104 -412v-91h-589q5 -117 54 -174t169 -57q68 0 117.5 21.5t117.5 68.5l127 -203q-174 -127 -407 -127q-255 0 -383.5 144.5t-128.5 404.5zM137 1284q0 64 43 108t111 44q67 0 111 -44t44 -108t-43.5 -109t-111.5 -45 q-65 0 -109.5 45t-44.5 109zM367 631h274q4 131 -27.5 183t-105.5 52q-72 0 -106 -54.5t-35 -180.5zM541 1284q0 64 43.5 108t111.5 44q67 0 110.5 -44t43.5 -108t-43 -109t-111 -45q-65 0 -110 45t-45 109z" />
<glyph unicode="&#xec;" horiz-adv-x="489" d="M-27 1307l119 235l420 -237l-96 -175zM82 0v1044l326 29v-1073h-326z" />
<glyph unicode="&#xed;" horiz-adv-x="489" d="M-27 1305l422 237l119 -235l-442 -177zM82 0v1044l326 29v-1073h-326z" />
<glyph unicode="&#xee;" horiz-adv-x="489" d="M-109 1286l351 248l350 -248l-107 -162l-243 146l-246 -146zM82 0v1044l326 29v-1073h-326z" />
<glyph unicode="&#xef;" horiz-adv-x="489" d="M-115 1284q0 64 43 108t111 44q67 0 111.5 -44t44.5 -108t-44 -109t-112 -45q-65 0 -109.5 45t-44.5 109zM82 0v1044l326 29v-1073h-326zM289 1284q0 64 43.5 108t111.5 44q67 0 110.5 -44t43.5 -108t-43 -109t-111 -45q-65 0 -110 45t-45 109z" />
<glyph unicode="&#xf0;" d="M33 520q0 242 113 371t290 129q117 0 189 -57q-59 98 -199 180l-203 -109l-63 121l123 66q-87 32 -148 45l133 233q177 -48 310 -123l190 101l63 -119l-126 -68q317 -254 317 -692q0 -298 -128.5 -460.5t-385.5 -162.5q-475 0 -475 545zM373 526q0 -186 37 -258.5 t118 -72.5q154 0 154 337q0 123 -23 220q-60 53 -135 53q-151 0 -151 -279z" />
<glyph unicode="&#xf1;" horiz-adv-x="1042" d="M78 0v1038l276 39q21 -57 21 -123q64 60 134 93.5t171 33.5q152 0 223.5 -75.5t71.5 -212.5v-793h-326v690q0 79 -24.5 108t-77.5 29q-82 0 -144 -65v-762h-325zM131 1155q3 309 211 309q58 0 125.5 -27t121 -54t79.5 -27q36 0 52 24.5t19 77.5l166 -8 q-3 -160 -55.5 -236.5t-155.5 -76.5q-58 0 -125.5 27.5t-121.5 55t-80 27.5q-34 0 -50.5 -24.5t-19.5 -75.5z" />
<glyph unicode="&#xf2;" d="M33 526q0 251 132 403t365 152q229 0 360.5 -135t131.5 -401q0 -284 -134 -427t-364 -143q-228 0 -359.5 147.5t-131.5 403.5zM258 1307l119 235l420 -237l-97 -175zM379 535q0 -190 34 -265t115 -75q75 0 110.5 79t35.5 267q0 126 -17.5 198t-48 98.5t-82.5 26.5 q-50 0 -80.5 -27.5t-48.5 -101t-18 -200.5z" />
<glyph unicode="&#xf3;" d="M33 526q0 251 132 403t365 152q229 0 360.5 -135t131.5 -401q0 -284 -134 -427t-364 -143q-228 0 -359.5 147.5t-131.5 403.5zM258 1305l422 237l119 -235l-443 -177zM379 535q0 -190 34 -265t115 -75q75 0 110.5 79t35.5 267q0 126 -17.5 198t-48 98.5t-82.5 26.5 q-50 0 -80.5 -27.5t-48.5 -101t-18 -200.5z" />
<glyph unicode="&#xf4;" d="M33 526q0 251 132 403t365 152q229 0 360.5 -135t131.5 -401q0 -284 -134 -427t-364 -143q-228 0 -359.5 147.5t-131.5 403.5zM176 1286l350 248l351 -248l-107 -162l-244 146l-245 -146zM379 535q0 -190 34 -265t115 -75q75 0 110.5 79t35.5 267q0 126 -17.5 198 t-48 98.5t-82.5 26.5q-50 0 -80.5 -27.5t-48.5 -101t-18 -200.5z" />
<glyph unicode="&#xf5;" d="M33 526q0 251 132 403t365 152q229 0 360.5 -135t131.5 -401q0 -284 -134 -427t-364 -143q-228 0 -359.5 147.5t-131.5 403.5zM139 1155q3 309 211 309q58 0 125.5 -27t121 -54t79.5 -27q36 0 52.5 24.5t19.5 77.5l165 -8q-3 -160 -55.5 -236.5t-155.5 -76.5 q-58 0 -125.5 27.5t-121.5 55t-80 27.5q-34 0 -50.5 -24.5t-19.5 -75.5zM379 535q0 -190 34 -265t115 -75q75 0 110.5 79t35.5 267q0 126 -17.5 198t-48 98.5t-82.5 26.5q-50 0 -80.5 -27.5t-48.5 -101t-18 -200.5z" />
<glyph unicode="&#xf6;" d="M33 526q0 251 132 403t365 152q229 0 360.5 -135t131.5 -401q0 -284 -134 -427t-364 -143q-228 0 -359.5 147.5t-131.5 403.5zM170 1284q0 64 43 108t111 44q67 0 111 -44t44 -108t-43.5 -109t-111.5 -45q-65 0 -109.5 45t-44.5 109zM379 535q0 -190 34 -265t115 -75 q75 0 110.5 79t35.5 267q0 126 -17.5 198t-48 98.5t-82.5 26.5q-50 0 -80.5 -27.5t-48.5 -101t-18 -200.5zM573 1284q0 64 44 108t112 44q67 0 110.5 -44t43.5 -108t-43 -109t-111 -45q-65 0 -110.5 45t-45.5 109z" />
<glyph unicode="&#xf7;" horiz-adv-x="1087" d="M63 573v275h963v-275h-963zM350 1126q0 78 56 133.5t135 55.5t135.5 -55.5t56.5 -133.5q0 -81 -55.5 -136.5t-134.5 -55.5q-80 0 -136.5 55.5t-56.5 136.5zM358 291q0 79 56.5 134.5t134.5 55.5q80 0 136 -55.5t56 -134.5t-56 -135t-134 -56q-80 0 -136.5 56t-56.5 135z " />
<glyph unicode="&#xf8;" d="M33 -88q8 13 22 34.5t43 67.5t48.5 76t19.5 29q-133 148 -133 407q0 251 132 403t365 152q113 0 205 -39l111 175l176 -76l-125 -199q125 -141 125 -397q0 -284 -134 -427t-364 -143q-108 0 -200 39l-113 -180zM350 535q0 -68 17 -117l264 428q-36 33 -105 33 q-32 0 -56.5 -7.5t-48 -30t-38.5 -59.5t-24 -99.5t-9 -147.5zM428 211q39 -33 100 -33q40 0 71 17.5t55.5 57.5t37.5 112.5t13 175.5q0 55 -17 94z" />
<glyph unicode="&#xf9;" horiz-adv-x="1042" d="M70 264v778l325 29v-704q0 -79 25 -108.5t78 -29.5q80 0 143 66v747l326 29v-1053l-277 -38q-20 54 -20 122q-64 -60 -134 -93.5t-171 -33.5q-152 0 -223.5 76t-71.5 213zM250 1307l119 235l419 -237l-96 -175z" />
<glyph unicode="&#xfa;" horiz-adv-x="1042" d="M70 264v778l325 29v-704q0 -79 25 -108.5t78 -29.5q80 0 143 66v747l326 29v-1053l-277 -38q-20 54 -20 122q-64 -60 -134 -93.5t-171 -33.5q-152 0 -223.5 76t-71.5 213zM250 1305l422 237l119 -235l-443 -177z" />
<glyph unicode="&#xfb;" horiz-adv-x="1042" d="M70 264v778l325 29v-704q0 -79 25 -108.5t78 -29.5q80 0 143 66v747l326 29v-1053l-277 -38q-20 54 -20 122q-64 -60 -134 -93.5t-171 -33.5q-152 0 -223.5 76t-71.5 213zM168 1286l350 248l350 -248l-106 -162l-244 146l-246 -146z" />
<glyph unicode="&#xfc;" horiz-adv-x="1042" d="M70 264v778l325 29v-704q0 -79 25 -108.5t78 -29.5q80 0 143 66v747l326 29v-1053l-277 -38q-20 54 -20 122q-64 -60 -134 -93.5t-171 -33.5q-152 0 -223.5 76t-71.5 213zM162 1284q0 64 42.5 108t110.5 44q67 0 111.5 -44t44.5 -108t-44 -109t-112 -45q-65 0 -109 45 t-44 109zM565 1284q0 64 44 108t112 44q67 0 110 -44t43 -108q0 -65 -42.5 -109.5t-110.5 -44.5q-65 0 -110.5 45t-45.5 109z" />
<glyph unicode="&#xfd;" horiz-adv-x="1017" d="M0 1055l338 20l102 -403q74 -310 88 -398q5 47 18 108t34.5 151.5t31.5 138.5l95 383h319l-293 -1016q-60 -212 -174.5 -314.5t-327.5 -117.5l-75 221q120 15 174.5 50.5t91.5 121.5h-78zM238 1305l421 237l119 -235l-442 -177z" />
<glyph unicode="&#xfe;" d="M78 -383v1813l303 53q22 -101 22 -246v-244q35 38 95 63t137 25q385 0 385 -538q0 -568 -428 -568q-115 0 -189 64v-377zM403 260q46 -59 123 -59q84 0 119 70t35 253q0 173 -30.5 241.5t-108.5 68.5q-84 0 -138 -70v-504z" />
<glyph unicode="&#xff;" horiz-adv-x="1017" d="M0 1055l338 20l102 -403q74 -310 88 -398q5 47 18 108t34.5 151.5t31.5 138.5l95 383h319l-293 -1016q-60 -212 -174.5 -314.5t-327.5 -117.5l-75 221q120 15 174.5 50.5t91.5 121.5h-78zM150 1284q0 64 42.5 108t110.5 44q67 0 111.5 -44t44.5 -108t-44 -109t-112 -45 q-65 0 -109 45t-44 109zM553 1284q0 64 44 108t112 44q67 0 110 -44t43 -108q0 -65 -42.5 -109.5t-110.5 -44.5q-65 0 -110.5 45t-45.5 109z" />
<glyph unicode="&#x152;" horiz-adv-x="1671" d="M43 694q0 366 167.5 549.5t481.5 183.5h918l-23 -274h-471v-276h383v-267h-383v-334h520v-276h-925q-347 0 -507.5 166.5t-160.5 527.5zM403 690q0 -124 15.5 -202t54 -127t97 -68t151.5 -19h84v877h-84q-90 0 -148 -21t-97.5 -74.5t-56 -141.5t-16.5 -224z" />
<glyph unicode="&#x153;" horiz-adv-x="1634" d="M33 526q0 251 132 403t365 152q207 0 320 -125q110 125 303 125q236 0 341 -132t105 -412v-91h-589q3 -117 52 -174t171 -57q67 0 117.5 22t117.5 68l125 -203q-174 -127 -407 -127q-225 0 -342 129q-114 -129 -320 -129q-228 0 -359.5 147.5t-131.5 403.5zM379 535 q0 -190 34 -265t115 -75q75 0 110.5 79t35.5 267q0 126 -17.5 198t-48 98.5t-82.5 26.5q-50 0 -80.5 -27.5t-48.5 -101t-18 -200.5zM1008 631h274q4 132 -27 183.5t-106 51.5q-68 0 -103 -55t-38 -180z" />
<glyph unicode="&#x178;" horiz-adv-x="1128" d="M-10 1427h366l211 -514l207 514h359l-404 -843v-584h-344v573zM205 1655q0 64 42.5 107.5t110.5 43.5q67 0 111.5 -43.5t44.5 -107.5t-44 -109t-112 -45q-65 0 -109 45t-44 109zM608 1655q0 64 44 107.5t112 43.5q67 0 110.5 -43.5t43.5 -107.5t-43 -109t-111 -45 q-66 0 -111 45.5t-45 108.5z" />
<glyph unicode="&#x2c6;" horiz-adv-x="819" d="M57 1286l351 248l350 -248l-107 -162l-243 146l-246 -146z" />
<glyph unicode="&#x2dc;" horiz-adv-x="819" d="M20 1155q3 309 211 309q58 0 125.5 -27t121 -54t79.5 -27q36 0 52.5 24.5t19.5 77.5l166 -8q-3 -160 -55.5 -236.5t-155.5 -76.5q-58 0 -126 27.5t-122 55t-80 27.5q-34 0 -50.5 -24.5t-19.5 -75.5z" />
<glyph unicode="&#x2000;" horiz-adv-x="958" />
<glyph unicode="&#x2001;" horiz-adv-x="1917" />
<glyph unicode="&#x2002;" horiz-adv-x="958" />
<glyph unicode="&#x2003;" horiz-adv-x="1917" />
<glyph unicode="&#x2004;" horiz-adv-x="639" />
<glyph unicode="&#x2005;" horiz-adv-x="479" />
<glyph unicode="&#x2006;" horiz-adv-x="319" />
<glyph unicode="&#x2007;" horiz-adv-x="319" />
<glyph unicode="&#x2008;" horiz-adv-x="239" />
<glyph unicode="&#x2009;" horiz-adv-x="383" />
<glyph unicode="&#x200a;" horiz-adv-x="106" />
<glyph unicode="&#x2010;" horiz-adv-x="679" d="M61 434v271h560v-271h-560z" />
<glyph unicode="&#x2011;" horiz-adv-x="679" d="M61 434v271h560v-271h-560z" />
<glyph unicode="&#x2012;" horiz-adv-x="679" d="M61 434v271h560v-271h-560z" />
<glyph unicode="&#x2013;" horiz-adv-x="1089" d="M66 436v254h958v-254h-958z" />
<glyph unicode="&#x2014;" horiz-adv-x="1554" d="M66 436v254h1423v-254h-1423z" />
<glyph unicode="&#x2018;" horiz-adv-x="475" d="M49 1079q0 65 18.5 123t58.5 111t112.5 89.5t171.5 49.5l30 -133q-143 -53 -143 -117q0 -16 14 -29t33.5 -24.5t39.5 -27t34 -45.5t14 -72q0 -72 -51.5 -120t-130.5 -48q-91 0 -146 66.5t-55 176.5z" />
<glyph unicode="&#x2019;" horiz-adv-x="475" d="M35 969q69 25 107 52t38 64q0 16 -14 29t-33.5 24.5t-39.5 27.5t-34 46t-14 72q0 72 51 120t129 48q92 0 146.5 -66.5t54.5 -179.5q0 -65 -18 -122t-57.5 -109.5t-111.5 -89t-171 -49.5z" />
<glyph unicode="&#x201a;" horiz-adv-x="475" d="M35 -145q69 25 107 52t38 64q0 16 -14 29t-33.5 24.5t-39.5 27.5t-34 46t-14 72q0 72 51 120t129 48q92 0 146.5 -66.5t54.5 -179.5q0 -65 -18 -122.5t-57.5 -110t-111.5 -89t-171 -49.5z" />
<glyph unicode="&#x201c;" horiz-adv-x="946" d="M49 1079q0 65 18.5 123t58.5 111t112.5 89.5t171.5 49.5l30 -133q-143 -53 -143 -117q0 -16 14 -29t33.5 -24.5t39.5 -27t34 -45.5t14 -72q0 -72 -51.5 -120t-130.5 -48q-91 0 -146 66.5t-55 176.5zM522 1079q0 65 18 123t58 111t112 89.5t171 49.5l30 -133 q-143 -53 -143 -117q0 -16 14 -29t34 -24.5t39.5 -27t33.5 -45.5t14 -72q0 -72 -51 -120t-129 -48q-92 0 -146.5 66t-54.5 177z" />
<glyph unicode="&#x201d;" horiz-adv-x="946" d="M35 969q69 25 107 52t38 64q0 16 -14 29t-33.5 24.5t-39.5 27.5t-34 46t-14 72q0 72 51 120t129 48q92 0 146.5 -66.5t54.5 -179.5q0 -65 -18 -122t-57.5 -109.5t-111.5 -89t-171 -49.5zM508 969q68 25 105.5 52t37.5 64q0 16 -14 29t-33.5 24.5t-39.5 27.5t-34 46 t-14 72q0 72 51.5 120t130.5 48q91 0 146 -67t55 -179q0 -64 -18.5 -121.5t-58 -110t-112 -89t-171.5 -49.5z" />
<glyph unicode="&#x201e;" horiz-adv-x="946" d="M35 -145q69 25 107 52t38 64q0 16 -14 29t-33.5 24.5t-39.5 27.5t-34 46t-14 72q0 72 51 120t129 48q92 0 146.5 -66.5t54.5 -179.5q0 -65 -18 -122.5t-57.5 -110t-111.5 -89t-171 -49.5zM508 -145q68 25 105.5 52t37.5 64q0 16 -14 29t-33.5 24.5t-39.5 27.5t-34 46 t-14 72q0 72 51.5 120t130.5 48q91 0 146 -67t55 -179q0 -64 -18.5 -122t-58 -110.5t-112 -89t-171.5 -49.5z" />
<glyph unicode="&#x2022;" horiz-adv-x="901" d="M106 725q0 141 100.5 241.5t242.5 100.5t243 -100.5t101 -241.5q0 -143 -100.5 -243.5t-243.5 -100.5q-142 0 -242.5 100.5t-100.5 243.5z" />
<glyph unicode="&#x2026;" horiz-adv-x="1339" d="M39 154q0 78 53 131t131 53q77 0 128.5 -53.5t51.5 -132.5q0 -78 -53.5 -129.5t-132.5 -51.5q-77 0 -127.5 52t-50.5 131zM485 154q0 78 53.5 131t131.5 53q77 0 128.5 -53.5t51.5 -132.5q0 -78 -53 -129.5t-131 -51.5t-129.5 52t-51.5 131zM932 154q0 78 53 131t131 53 t129 -53t51 -133q0 -78 -53 -129.5t-131 -51.5t-129 52t-51 131z" />
<glyph unicode="&#x202f;" horiz-adv-x="383" />
<glyph unicode="&#x2039;" horiz-adv-x="616" d="M33 516l329 483l222 -129l-207 -354l207 -354l-222 -129z" />
<glyph unicode="&#x203a;" horiz-adv-x="616" d="M33 162l209 354l-209 354l221 129l330 -483l-330 -483z" />
<glyph unicode="&#x205f;" horiz-adv-x="479" />
<glyph unicode="&#x20ac;" horiz-adv-x="1179" d="M31 457v192h1h1h1h1h1h1h1h1h1h1h1h1h1h1h1h1h1h1h1h1h1h1h1h1h1h1h1h1h1h2h1h1h1h1h2h1h1h1h2h1h1h2h1h1h2h1h1h2h1h2h1h2h1h1h2h1h2h1h2h2h1h2h1h2h1h2h2h1h2h2h1h2h2h1h2h2h1h2h2h2h1h2h2h2h2h1h2h2h2h2h2h2h8v60q0 43 2 63h-137v191h155q91 487 586 487 q242 0 416 -125l-117 -242q-66 50 -129 75.5t-147 25.5q-106 0 -167 -52t-87 -169h358v-191h-379v-51q0 -49 2 -72h377v-192h-358q26 -117 85.5 -166t168.5 -49q85 0 145.5 24.5t130.5 73.5l117 -242q-172 -123 -418 -123q-250 0 -395 118.5t-189 363.5h-155z" />
<glyph unicode="&#x2122;" horiz-adv-x="1478" d="M31 1241v186h547l-13 -186h-157v-528h-213v528h-164zM594 713l53 714h266l58 -249q26 -125 35 -207q12 87 38 207l62 249h262l55 -714h-194l-17 286q-12 177 -12 211q-15 -107 -35 -202l-57 -295h-211l-57 295q-28 137 -37 202q0 -46 -6 -211l-15 -286h-188z" />
<glyph unicode="&#xe000;" horiz-adv-x="1075" d="M0 0v1075h1075v-1075h-1075z" />
</font>
</defs>
</svg>
